<svg width="516" height="84" viewBox="0 0 516 84" fill="none" xmlns="http://www.w3.org/2000/svg">
<g opacity="0.1">
<path fill-rule="evenodd" clip-rule="evenodd" d="M0.43996 19.1874C0.440024 19.1994 0.440056 19.2114 0.440056 19.2235V66.4413C0.440056 77.0001 6.36271 83.9997 18.0896 83.9997C28.7503 83.9997 33.9622 78.3051 37.042 69.17L56.4683 18.0371C56.5187 17.8941 56.5739 17.754 56.6336 17.6172C56.9702 16.9108 57.3878 16.2926 57.8921 15.8035C58.4245 15.3029 59.053 14.9356 59.7467 14.7448C60.0833 14.6585 60.4419 14.613 60.8232 14.613C61.8359 14.613 62.7403 14.9381 63.444 15.5328C64.3422 16.3305 64.8785 17.6044 64.8785 19.2235L64.7648 49.147L64.6483 66.2171C64.6483 76.7758 70.5709 83.7755 82.2978 83.7755C92.9585 83.7755 98.1705 78.0809 101.25 68.9457L120.677 17.8129C121.387 15.796 123.046 14.3724 125.059 14.3724C127.42 14.3724 129.075 16.1395 129.087 18.9693V1.0939C127.933 0.931286 126.709 0.847656 125.415 0.847656C114.754 0.847656 109.66 6.54226 106.581 15.6774L87.1543 66.8103C86.4436 68.8271 84.7853 70.1321 82.6531 70.1321C80.2841 70.1321 78.6257 68.3526 78.6257 65.6239L78.6764 58.1876L78.9744 18.5116C78.9744 8.07152 73.0518 1.07189 61.2064 1.07189C57.0925 1.07189 53.8076 1.9199 51.1476 3.48637C46.8982 5.97672 44.24 10.2957 42.3446 15.918L24.2314 63.5956L24.2519 63.5974L22.9461 67.0345C22.2354 69.0513 20.5771 70.3564 18.4449 70.3564C16.0758 70.3564 14.4175 68.5768 14.4175 65.8481V18.5116C14.4175 9.25182 9.75833 2.69854 0.43996 1.33514V19.1874Z" fill="#FF29EA"/>
<path fill-rule="evenodd" clip-rule="evenodd" d="M257.733 66.5329C257.768 77.0405 263.69 83.9997 275.383 83.9997C286.043 83.9997 291.255 78.3051 294.335 69.17L313.761 18.0371C313.812 17.894 313.867 17.7539 313.927 17.6171C314.263 16.9108 314.681 16.2927 315.185 15.8037C315.717 15.3029 316.346 14.9355 317.04 14.7448C317.376 14.6585 317.735 14.613 318.116 14.613C319.129 14.613 320.034 14.9382 320.737 15.5329C321.635 16.3306 322.172 17.6044 322.172 19.2235L322.058 49.1445L321.941 66.2171C321.941 76.7758 327.864 83.7755 339.591 83.7755C350.252 83.7755 355.464 78.0809 358.543 68.9457L377.97 17.8129C378.68 15.796 380.339 14.3724 382.352 14.3724C384.716 14.3724 386.372 16.1431 386.38 18.9781V1.0939C385.227 0.931287 384.003 0.847656 382.708 0.847656C372.047 0.847656 366.954 6.54226 363.874 15.6774L344.447 66.8103C343.737 68.8271 342.078 70.1321 339.946 70.1321C337.577 70.1321 335.919 68.3526 335.919 65.6239L335.969 58.1887L336.268 18.5116C336.268 8.07152 330.345 1.07189 318.5 1.07189C314.386 1.07189 311.102 1.91956 308.442 3.48545C304.192 5.97565 301.533 10.2951 299.638 15.918L281.524 63.5956L281.545 63.5974L280.239 67.0345C279.529 69.0513 277.87 70.3564 275.738 70.3564C273.369 70.3564 271.711 68.5768 271.711 65.8481V18.5116C271.711 9.25191 267.052 2.69866 257.733 1.33518V66.5329Z" fill="#FF29EA"/>
<path fill-rule="evenodd" clip-rule="evenodd" d="M129.086 66.5657C129.133 77.055 135.055 83.9997 146.736 83.9997C157.396 83.9997 162.608 78.3051 165.688 69.17L185.114 18.0371C185.165 17.8941 185.22 17.754 185.28 17.6172C185.616 16.9108 186.034 16.2926 186.538 15.8035C187.071 15.3029 187.699 14.9356 188.393 14.7448C188.729 14.6585 189.088 14.613 189.469 14.613C190.482 14.613 191.386 14.9382 192.09 15.5329C192.988 16.3306 193.525 17.6044 193.525 19.2235L193.411 49.1445L193.294 66.2171C193.294 76.7758 199.217 83.7755 210.944 83.7755C221.605 83.7755 226.817 78.0809 229.896 68.9457L249.323 17.8129C250.033 15.796 251.692 14.3724 253.705 14.3724C256.074 14.3724 257.733 16.1519 257.733 18.9992V82.3518H257.733V1.09392C256.58 0.931295 255.356 0.847656 254.061 0.847656C243.4 0.847656 238.306 6.54226 235.227 15.6774L215.8 66.8103C215.09 68.8271 213.431 70.1321 211.299 70.1321C208.93 70.1321 207.272 68.3526 207.272 65.6239L207.322 58.1887L207.62 18.5116C207.62 8.07152 201.698 1.07189 189.853 1.07189C185.739 1.07189 182.455 1.91967 179.795 3.48575C175.545 5.976 172.886 10.2953 170.991 15.918L152.877 63.5956L152.898 63.5974L151.592 67.0345C150.881 69.0513 149.223 70.3564 147.091 70.3564C144.722 70.3564 143.064 68.5768 143.064 65.8481V18.5116C143.064 9.25195 138.405 2.69872 129.086 1.33519V66.5657Z" fill="#FF29EA"/>
<path fill-rule="evenodd" clip-rule="evenodd" d="M386.38 19.169C386.38 19.1871 386.38 19.2053 386.38 19.2235V66.4413C386.38 77.0001 392.303 83.9997 404.03 83.9997C414.69 83.9997 419.902 78.3051 422.982 69.17L442.408 18.0371C442.458 17.8951 442.513 17.7561 442.572 17.6203C442.91 16.9108 443.329 16.2901 443.836 15.7997C444.367 15.3014 444.994 14.9357 445.685 14.7453C446.022 14.6587 446.381 14.613 446.763 14.613C447.775 14.613 448.678 14.9373 449.382 15.5307C450.281 16.3282 450.819 17.6029 450.819 19.2235L450.705 49.1873L450.588 66.2171C450.588 76.7758 456.511 83.7755 468.238 83.7755C478.899 83.7755 484.111 78.0809 487.19 68.9457L506.617 17.8129C507.327 15.796 508.986 14.3724 510.999 14.3724C513.354 14.3724 515.006 16.1295 515.027 18.9454V1.09388C513.873 0.931279 512.65 0.847656 511.355 0.847656C500.694 0.847656 495.601 6.54226 492.521 15.6774L473.095 66.8103C472.384 68.8271 470.725 70.1321 468.593 70.1321C466.224 70.1321 464.566 68.3526 464.566 65.6239L464.618 58.013L464.914 18.5116C464.914 8.07152 458.992 1.07189 447.146 1.07189C443.02 1.07189 439.727 1.92526 437.062 3.50124C432.828 5.99389 430.176 10.3069 428.285 15.918L410.172 63.5956L410.192 63.5974L408.886 67.0345C408.175 69.0513 406.517 70.3564 404.385 70.3564C402.016 70.3564 400.358 68.5768 400.358 65.8481V18.5116C400.358 9.25178 395.698 2.69849 386.38 1.33512V19.169Z" fill="#FF29EA"/>
</g>
</svg>
