<svg width="176" height="28" viewBox="0 0 176 28" fill="none" xmlns="http://www.w3.org/2000/svg">
<g filter="url(#filter0_dd_675_26)">
<path d="M13.7712 6.50072C13.9936 5.96567 14.3748 5.58798 14.9466 5.58798C15.582 5.58798 16.0586 6.06008 16.0586 6.81545V19.3419C16.0586 22.1431 17.647 24 20.7922 24C23.6515 24 25.0493 22.4893 25.8753 20.0658L31.0855 6.50072C31.2761 5.96567 31.7209 5.58798 32.261 5.58798C32.8963 5.58798 33.3411 6.06008 33.3411 6.81545V23.6223H37.1217V6.62661C37.1217 3.85694 35.5332 2 32.3563 2C29.497 2 28.1309 3.51073 27.3049 5.93419L22.0948 19.4993C21.9041 20.0343 21.4594 20.3805 20.8875 20.3805C20.2521 20.3805 19.8074 19.9084 19.8074 19.1845V6.62661C19.8074 3.85694 18.2189 2 15.042 2C12.1827 2 10.8166 3.51073 9.99063 5.93419L3.35083 23.6223H7.35377L13.7712 6.50072Z" fill="white"/>
<path d="M55.0106 2.37768C48.7838 2.37768 45.3209 5.90272 45.3209 13.0472C45.3209 20.1602 48.752 23.6223 55.0106 23.6223H57.9333C64.1919 23.6223 67.623 20.1602 67.623 13.0472C67.623 5.90272 64.1601 2.37768 57.9333 2.37768H55.0106ZM57.9333 6.09156C62.0634 6.09156 63.8424 8.16881 63.8424 13.0157C63.8424 17.8941 62.0634 19.9084 57.9333 19.9084H55.0106C50.8488 19.9084 49.0697 17.8941 49.0697 13.0472C49.0697 8.16881 50.8805 6.09156 55.0106 6.09156H57.9333Z" fill="white"/>
<path d="M77.1701 2.37768C75.9628 2.37768 75.391 2.94421 75.391 4.10873V21.8913C75.391 23.0558 75.9628 23.6223 77.1701 23.6223H84.7312C91.0215 23.6223 94.3891 20.1602 94.3891 13.0157C94.3891 5.83977 90.9897 2.37768 84.7312 2.37768H77.1701ZM79.1398 6.46924C79.1398 6.18598 79.2668 6.09156 79.5528 6.09156H84.7312C88.893 6.09156 90.6403 8.13734 90.6403 12.9843C90.6403 17.8627 88.893 19.9084 84.7312 19.9084H79.5528C79.2668 19.9084 79.1398 19.814 79.1398 19.5308V6.46924Z" fill="white"/>
<path d="M102.468 2.37768V16.8555C102.468 21.3247 104.819 23.6223 109.394 23.6223H113.905C118.48 23.6223 120.863 21.3247 120.863 16.8555V2.37768H117.177V16.5722C117.177 18.681 116.065 19.9084 113.651 19.9084H109.839C107.361 19.9084 106.28 18.681 106.28 16.5722V2.37768H102.468Z" fill="white"/>
<path d="M129.486 2.37768V16.289C129.486 20.5379 131.709 23.6223 137.396 23.6223H145.942V19.9084H137.618C134.251 19.9084 133.234 18.3033 133.234 16.2575V2.37768H129.486Z" fill="white"/>
<path d="M160.138 2.37768C153.912 2.37768 150.449 5.90272 150.449 13.0472C150.449 20.1602 153.88 23.6223 160.138 23.6223H163.061C169.32 23.6223 172.751 20.1602 172.751 13.0472C172.751 5.90272 169.288 2.37768 163.061 2.37768H160.138ZM163.061 6.09156C167.191 6.09156 168.97 8.16881 168.97 13.0157C168.97 17.8941 167.191 19.9084 163.061 19.9084H160.138C155.977 19.9084 154.198 17.8941 154.198 13.0472C154.198 8.16881 156.008 6.09156 160.138 6.09156H163.061Z" fill="white"/>
</g>
<defs>
<filter id="filter0_dd_675_26" x="0.35083" y="0" width="175.4" height="28" filterUnits="userSpaceOnUse" color-interpolation-filters="sRGB">
<feFlood flood-opacity="0" result="BackgroundImageFix"/>
<feColorMatrix in="SourceAlpha" type="matrix" values="0 0 0 0 0 0 0 0 0 0 0 0 0 0 0 0 0 0 127 0" result="hardAlpha"/>
<feOffset dy="1"/>
<feGaussianBlur stdDeviation="1.5"/>
<feComposite in2="hardAlpha" operator="out"/>
<feColorMatrix type="matrix" values="0 0 0 0 0 0 0 0 0 0 0 0 0 0 0 0 0 0 0.07 0"/>
<feBlend mode="normal" in2="BackgroundImageFix" result="effect1_dropShadow_675_26"/>
<feColorMatrix in="SourceAlpha" type="matrix" values="0 0 0 0 0 0 0 0 0 0 0 0 0 0 0 0 0 0 127 0" result="hardAlpha"/>
<feOffset dy="1"/>
<feComposite in2="hardAlpha" operator="out"/>
<feColorMatrix type="matrix" values="0 0 0 0 0 0 0 0 0 0 0 0 0 0 0 0 0 0 0.2 0"/>
<feBlend mode="normal" in2="effect1_dropShadow_675_26" result="effect2_dropShadow_675_26"/>
<feBlend mode="normal" in="SourceGraphic" in2="effect2_dropShadow_675_26" result="shape"/>
</filter>
</defs>
</svg>
