<svg width="207" height="32" viewBox="0 0 207 32" fill="none" xmlns="http://www.w3.org/2000/svg">
<g filter="url(#filter0_dd_722_566)">
<path d="M15.7397 7.31371C16.0022 6.68201 16.4523 6.23611 17.1275 6.23611C17.8776 6.23611 18.4403 6.79349 18.4403 7.6853V22.4745C18.4403 25.7817 20.3157 27.974 24.029 27.974C27.4047 27.974 29.055 26.1904 30.0303 23.3292L36.1816 7.31371C36.4066 6.68201 36.9318 6.23611 37.5694 6.23611C38.3195 6.23611 38.8447 6.79349 38.8447 7.6853V27.5281H43.3081V7.46235C43.3081 4.19237 41.4327 2 37.6819 2C34.3062 2 32.6933 3.78362 31.7181 6.64485L25.5668 22.6603C25.3417 23.292 24.8166 23.7008 24.1415 23.7008C23.3913 23.7008 22.8662 23.1434 22.8662 22.2887V7.46235C22.8662 4.19237 20.9908 2 17.24 2C13.8643 2 12.2514 3.78362 11.2762 6.64485L3.43701 27.5281H8.16303L15.7397 7.31371Z" fill="white"/>
<path d="M64.4284 2.44591C57.0768 2.44591 52.9884 6.6077 52.9884 15.0427C52.9884 23.4406 57.0393 27.5281 64.4284 27.5281H67.8792C75.2683 27.5281 79.3191 23.4406 79.3191 15.0427C79.3191 6.6077 75.2308 2.44591 67.8792 2.44591H64.4284ZM67.8792 6.83065C72.7552 6.83065 74.8557 9.28313 74.8557 15.0056C74.8557 20.7652 72.7552 23.1434 67.8792 23.1434H64.4284C59.5149 23.1434 57.4144 20.7652 57.4144 15.0427C57.4144 9.28313 59.5524 6.83065 64.4284 6.83065H67.8792Z" fill="white"/>
<path d="M90.5908 2.44591C89.1655 2.44591 88.4903 3.11476 88.4903 4.48964V25.4844C88.4903 26.8593 89.1655 27.5281 90.5908 27.5281H99.5177C106.944 27.5281 110.92 23.4406 110.92 15.0056C110.92 6.53338 106.907 2.44591 99.5177 2.44591H90.5908ZM92.9163 7.27655C92.9163 6.94212 93.0663 6.83065 93.4039 6.83065H99.5177C104.431 6.83065 106.494 9.24597 106.494 14.9684C106.494 20.728 104.431 23.1434 99.5177 23.1434H93.4039C93.0663 23.1434 92.9163 23.0319 92.9163 22.6975V7.27655Z" fill="white"/>
<path d="M120.459 2.44591V19.539C120.459 24.8155 123.234 27.5281 128.635 27.5281H133.962C139.363 27.5281 142.176 24.8155 142.176 19.539V2.44591H137.825V19.2045C137.825 21.6942 136.512 23.1434 133.661 23.1434H129.161C126.235 23.1434 124.96 21.6942 124.96 19.2045V2.44591H120.459Z" fill="white"/>
<path d="M152.356 2.44591V18.8701C152.356 23.8865 154.982 27.5281 161.696 27.5281H171.786V23.1434H161.958C157.983 23.1434 156.782 21.2483 156.782 18.8329V2.44591H152.356Z" fill="white"/>
<path d="M188.546 2.44591C181.195 2.44591 177.106 6.6077 177.106 15.0427C177.106 23.4406 181.157 27.5281 188.546 27.5281H191.997C199.386 27.5281 203.437 23.4406 203.437 15.0427C203.437 6.6077 199.349 2.44591 191.997 2.44591H188.546ZM191.997 6.83065C196.873 6.83065 198.974 9.28313 198.974 15.0056C198.974 20.7652 196.873 23.1434 191.997 23.1434H188.546C183.633 23.1434 181.532 20.7652 181.532 15.0427C181.532 9.28313 183.67 6.83065 188.546 6.83065H191.997Z" fill="white"/>
</g>
<defs>
<filter id="filter0_dd_722_566" x="0.437012" y="0" width="206" height="31.9741" filterUnits="userSpaceOnUse" color-interpolation-filters="sRGB">
<feFlood flood-opacity="0" result="BackgroundImageFix"/>
<feColorMatrix in="SourceAlpha" type="matrix" values="0 0 0 0 0 0 0 0 0 0 0 0 0 0 0 0 0 0 127 0" result="hardAlpha"/>
<feOffset dy="1"/>
<feGaussianBlur stdDeviation="1.5"/>
<feComposite in2="hardAlpha" operator="out"/>
<feColorMatrix type="matrix" values="0 0 0 0 0 0 0 0 0 0 0 0 0 0 0 0 0 0 0.07 0"/>
<feBlend mode="normal" in2="BackgroundImageFix" result="effect1_dropShadow_722_566"/>
<feColorMatrix in="SourceAlpha" type="matrix" values="0 0 0 0 0 0 0 0 0 0 0 0 0 0 0 0 0 0 127 0" result="hardAlpha"/>
<feOffset dy="1"/>
<feComposite in2="hardAlpha" operator="out"/>
<feColorMatrix type="matrix" values="0 0 0 0 0 0 0 0 0 0 0 0 0 0 0 0 0 0 0.2 0"/>
<feBlend mode="normal" in2="effect1_dropShadow_722_566" result="effect2_dropShadow_722_566"/>
<feBlend mode="normal" in="SourceGraphic" in2="effect2_dropShadow_722_566" result="shape"/>
</filter>
</defs>
</svg>
