<svg width="1765" height="2912" viewBox="0 0 1765 2912" fill="none" xmlns="http://www.w3.org/2000/svg">
<circle cx="1145.14" cy="460.224" r="8" fill="#2B2533"/>
<path d="M882 1V260.907C882 268.213 877.05 274.592 869.972 276.406L555.584 356.975C538.427 361.372 540.069 386.256 557.655 388.361L1344.42 482.529C1352.46 483.492 1358.52 490.315 1358.52 498.416V560.271C1358.52 567.986 1353.01 574.601 1345.43 576.005L314.379 766.741C296.798 769.993 296.98 795.249 314.607 798.247L689.999 862.096C703.892 864.459 708.166 882.329 696.845 890.722L607.398 957.037C600.376 962.243 590.475 960.849 585.162 953.907L267.742 539.085C257.437 525.618 272.411 507.477 287.587 515.043L893.837 817.291C896.556 818.646 899.605 819.2 902.627 818.886L1370.54 770.332C1378.93 769.461 1386.56 775.264 1387.96 783.589L1441.07 1098.87C1444.1 1116.87 1470.05 1116.58 1472.68 1098.52L1491.82 967.104C1493.72 954.027 1479.85 944.41 1468.27 950.781L311.164 1587.43C300.189 1593.46 286.845 1585.12 287.471 1572.61L304.975 1222.54C305.534 1211.35 317.121 1204.19 327.38 1208.69L1258.82 1617.1C1268.35 1621.28 1279.27 1615.39 1281.02 1605.14L1322.74 1360.63C1324.61 1349.67 1315 1340.19 1304.07 1342.21L1217.72 1358.15C1203.2 1360.83 1199.75 1380.07 1212.43 1387.63L1473.38 1543.17C1483.79 1549.38 1483.79 1564.46 1473.37 1570.66L510.956 2143.55C500.291 2149.9 486.772 2142.21 486.772 2129.8V1785.34C486.772 1774.53 497.274 1766.83 507.585 1770.08L1246.91 2003.31C1264.36 2008.82 1260.4 2034.57 1242.1 2034.57H354C345.164 2034.57 338 2041.73 338 2050.57V2251.25C338 2258.57 342.972 2264.96 350.072 2266.76L1312.26 2510.46C1320.35 2512.51 1328.64 2508.05 1331.28 2500.13C1356.27 2425.08 1392.39 2308.11 1409.86 2251.14C1413.87 2238.04 1400.93 2226.18 1388.38 2231.69C1262.31 2287.13 789.244 2493 502.418 2588.23C497.332 2589.92 491.891 2588.88 487.68 2585.57L414.342 2527.84C400.113 2516.64 412.51 2494.14 429.579 2500.19L871.341 2656.63C877.73 2658.9 882 2664.94 882 2671.72V2709.5" stroke="black" stroke-opacity="0.15"/>
<path d="M882 127.13V0.973145" stroke="#686681"/>
<path d="M861.494 2891.29L877.752 2907.54C880.095 2909.89 883.894 2909.89 886.237 2907.54L902.494 2891.29M881.994 2909V2709.5" stroke="black" stroke-opacity="0.15"/>
<circle cx="1420.4" cy="976.414" r="8" fill="#2B2533"/>
<circle cx="486.954" cy="827.217" r="8" fill="#2B2533"/>
<circle cx="426" cy="744.806" r="8" fill="#2B2533"/>
<circle cx="662.339" cy="702.533" r="8" fill="#2B2533"/>
<circle cx="1308.84" cy="1446.34" r="8" fill="#2B2533"/>
<circle cx="700" cy="1373" r="8" fill="#2B2533"/>
<circle cx="292.688" cy="1446.34" r="8" fill="#2B2533"/>
<circle cx="486.954" cy="2035.34" r="8" fill="#2B2533"/>
<circle cx="919" cy="1901" r="8" fill="#2B2533"/>
<circle cx="1368.57" cy="2241.78" r="8" fill="#2B2533"/>
<circle cx="595.602" cy="2554.83" r="8" fill="#2B2533"/>
</svg>
